TITLE ""
FILE "Step2_Track14.mp3" MP3
  TRACK 01 AUDIO
    TITLE "Step2_Track14_01"
    INDEX 01 00:00:00
  TRACK 02 AUDIO
    TITLE "Step2_Track14_02"
    INDEX 01 00:00:22
  TRACK 03 AUDIO
    TITLE "Step2_Track14_03"
    INDEX 01 00:01:72
  TRACK 04 AUDIO
    TITLE "Step2_Track14_04"
    INDEX 01 00:02:46
  TRACK 05 AUDIO
    TITLE "Step2_Track14_05"
    INDEX 01 00:03:44
  TRACK 06 AUDIO
    TITLE "Step2_Track14_06"
    INDEX 01 00:03:67
  TRACK 07 AUDIO
    TITLE "Step2_Track14_07"
    INDEX 01 00:06:34
  TRACK 08 AUDIO
    TITLE "Step2_Track14_08"
    INDEX 01 00:07:01
  TRACK 09 AUDIO
    TITLE "Step2_Track14_09"
    INDEX 01 00:07:71
  TRACK 10 AUDIO
    TITLE "Step2_Track14_10"
    INDEX 01 00:08:14
  TRACK 11 AUDIO
    TITLE "Step2_Track14_11"
    INDEX 01 00:10:34
  TRACK 12 AUDIO
    TITLE "Step2_Track14_12"
    INDEX 01 00:10:64
  TRACK 13 AUDIO
    TITLE "Step2_Track14_13"
    INDEX 01 00:11:59
  TRACK 14 AUDIO
    TITLE "Step2_Track14_14"
    INDEX 01 00:12:06
  TRACK 15 AUDIO
    TITLE "Step2_Track14_15"
    INDEX 01 00:13:70
  TRACK 16 AUDIO
    TITLE "Step2_Track14_16"
    INDEX 01 00:14:18
  TRACK 17 AUDIO
    TITLE "Step2_Track14_17"
    INDEX 01 00:15:12
  TRACK 18 AUDIO
    TITLE "Step2_Track14_18"
    INDEX 01 00:15:37
  TRACK 19 AUDIO
    TITLE "Step2_Track14_19"
    INDEX 01 00:18:14
  TRACK 20 AUDIO
    TITLE "Step2_Track14_20"
    INDEX 01 00:18:43
  TRACK 21 AUDIO
    TITLE "Step2_Track14_21"
    INDEX 01 00:19:37
  TRACK 22 AUDIO
    TITLE "Step2_Track14_22"
    INDEX 01 00:19:63
  TRACK 23 AUDIO
    TITLE "Step2_Track14_23"
    INDEX 01 00:22:53
  TRACK 24 AUDIO
    TITLE "Step2_Track14_24"
    INDEX 01 00:23:11
  TRACK 25 AUDIO
    TITLE "Step2_Track14_25"
    INDEX 01 00:24:17
  TRACK 26 AUDIO
    TITLE "Step2_Track14_26"
    INDEX 01 00:24:30
  TRACK 27 AUDIO
    TITLE "Step2_Track14_27"
    INDEX 01 00:26:55
  TRACK 28 AUDIO
    TITLE "Step2_Track14_28"
    INDEX 01 00:27:15
  TRACK 29 AUDIO
    TITLE "Step2_Track14_29"
    INDEX 01 00:28:22
  TRACK 30 AUDIO
    TITLE "Step2_Track14_30"
    INDEX 01 00:28:36
  TRACK 31 AUDIO
    TITLE "Step2_Track14_31"
    INDEX 01 00:30:70
  TRACK 32 AUDIO
    TITLE "Step2_Track14_32"
    INDEX 01 00:31:28
  TRACK 33 AUDIO
    TITLE "Step2_Track14_33"
    INDEX 01 00:32:08
  TRACK 34 AUDIO
    TITLE "Step2_Track14_34"
    INDEX 01 00:32:49
  TRACK 35 AUDIO
    TITLE "Step2_Track14_35"
    INDEX 01 00:35:24
  TRACK 36 AUDIO
    TITLE "Step2_Track14_36"
    INDEX 01 00:35:54
  TRACK 37 AUDIO
    TITLE "Step2_Track14_37"
    INDEX 01 00:36:55
  TRACK 38 AUDIO
    TITLE "Step2_Track14_38"
    INDEX 01 00:37:02
  TRACK 39 AUDIO
    TITLE "Step2_Track14_39"
    INDEX 01 00:39:69
  TRACK 40 AUDIO
    TITLE "Step2_Track14_40"
    INDEX 01 00:40:14
  TRACK 41 AUDIO
    TITLE "Step2_Track14_41"
    INDEX 01 00:41:09
  TRACK 42 AUDIO
    TITLE "Step2_Track14_42"
    INDEX 01 00:41:29
  TRACK 43 AUDIO
    TITLE "Step2_Track14_43"
    INDEX 01 00:44:00
